<svg xmlns="http://www.w3.org/2000/svg" viewBox="0 0 16 16" fill="currentColor">
<path fill-rule="evenodd" d="m11.354 1.853-.647.647h.364c1.031 0 1.978.354 2.686.944C14.51 4.073 15 4.978 15 6a.5.5 0 0 1-1 0c0-.688-.328-1.324-.884-1.788-.523-.436-1.242-.712-2.045-.712h-.192l.475.475a.5.5 0 0 1-.707.707L9.373 3.409a.7.7 0 0 1 0-.99l1.272-1.273a.5.5 0 1 1 .708.707ZM2.5 5A1.5 1.5 0 0 0 1 6.5v7A1.5 1.5 0 0 0 2.5 15h7a1.5 1.5 0 0 0 1.5-1.5v-7A1.5 1.5 0 0 0 9.5 5h-7ZM2 6.5a.5.5 0 0 1 .5-.5h7a.5.5 0 0 1 .5.5v7a.5.5 0 0 1-.5.5h-7a.5.5 0 0 1-.5-.5v-7Z"></path>
</svg>