<svg xmlns="http://www.w3.org/2000/svg" viewBox="0 0 16 16" fill="currentColor">
<path fill-rule="evenodd" d="M3.01 3.004a1 1 0 0 0-.995.897h1.452c.612 0 1.2.246 1.63.682l.031.033c.242.246.572.384.917.384H11a1 1 0 0 1 1 1v6.996h.997a1 1 0 0 0 1-1v-6.95a1 1 0 0 0-1-1H6.918c-.375 0-.743-.103-1.065-.297l-.983-.593a1.063 1.063 0 0 0-.549-.152H3.01Zm-2 .998a2 2 0 0 1 2-1.998H4.32c.375 0 .744.102 1.065.296l.984.593c.165.1.355.152.548.152h6.079a2 2 0 0 1 2 2v6.951a2 2 0 0 1-2 2H3.004a2 2 0 0 1-2-2.001l.006-7.993Z"></path>
</svg>