<svg xmlns="http://www.w3.org/2000/svg" viewBox="0 0 16 16" fill="currentColor">
<path fill-rule="evenodd" d="M8 3H2v11h2v-1.5a.5.5 0 0 1 .5-.5h1a.5.5 0 0 1 .5.5V14h2V3ZM1 15h14V9a1 1 0 0 0-1-1H9V3a1 1 0 0 0-1-1H2a1 1 0 0 0-1 1v12Zm13-1H9V9h5v5ZM3.3 4a.3.3 0 0 0-.3.3v.4a.3.3 0 0 0 .3.3h.4a.3.3 0 0 0 .3-.3v-.4a.3.3 0 0 0-.3-.3h-.4ZM3 6.3a.3.3 0 0 1 .3-.3h.4a.3.3 0 0 1 .3.3v.4a.3.3 0 0 1-.3.3h-.4a.3.3 0 0 1-.3-.3v-.4ZM3.3 8a.3.3 0 0 0-.3.3v.4a.3.3 0 0 0 .3.3h.4a.3.3 0 0 0 .3-.3v-.4a.3.3 0 0 0-.3-.3h-.4ZM3 10.3a.3.3 0 0 1 .3-.3h.4a.3.3 0 0 1 .3.3v.4a.3.3 0 0 1-.3.3h-.4a.3.3 0 0 1-.3-.3v-.4ZM6.3 4a.3.3 0 0 0-.3.3v.4a.3.3 0 0 0 .3.3h.4a.3.3 0 0 0 .3-.3v-.4a.3.3 0 0 0-.3-.3h-.4ZM6 6.3a.3.3 0 0 1 .3-.3h.4a.3.3 0 0 1 .3.3v.4a.3.3 0 0 1-.3.3h-.4a.3.3 0 0 1-.3-.3v-.4ZM6.3 8a.3.3 0 0 0-.3.3v.4a.3.3 0 0 0 .3.3h.4a.3.3 0 0 0 .3-.3v-.4a.3.3 0 0 0-.3-.3h-.4ZM6 10.3a.3.3 0 0 1 .3-.3h.4a.3.3 0 0 1 .3.3v.4a.3.3 0 0 1-.3.3h-.4a.3.3 0 0 1-.3-.3v-.4Zm4.3-.3a.3.3 0 0 0-.3.3v.4a.3.3 0 0 0 .3.3h.4a.3.3 0 0 0 .3-.3v-.4a.3.3 0 0 0-.3-.3h-.4Zm-.3 2.3a.3.3 0 0 1 .3-.3h.4a.3.3 0 0 1 .3.3v.4a.3.3 0 0 1-.3.3h-.4a.3.3 0 0 1-.3-.3v-.4Zm2.3-2.3a.3.3 0 0 0-.3.3v.4a.3.3 0 0 0 .3.3h.4a.3.3 0 0 0 .3-.3v-.4a.3.3 0 0 0-.3-.3h-.4Zm-.3 2.3a.3.3 0 0 1 .3-.3h.4a.3.3 0 0 1 .3.3v.4a.3.3 0 0 1-.3.3h-.4a.3.3 0 0 1-.3-.3v-.4Z"></path>
</svg>