<svg xmlns="http://www.w3.org/2000/svg" viewBox="0 0 16 16" fill="currentColor">
<path fill-rule="evenodd" d="M1 4a2 2 0 0 1 2-2h1.028c.388 0 .77.09 1.118.264l1.155.578A1.5 1.5 0 0 0 6.972 3H13a2 2 0 0 1 2 2v7a2 2 0 0 1-2 2H3a2 2 0 0 1-2-2V4Zm2-1a1 1 0 0 0-1 1h1.894a2.5 2.5 0 0 1 1.387.42l.493.328A1.5 1.5 0 0 0 6.606 5H10a2 2 0 0 1 2 2v6h1a1 1 0 0 0 1-1V5a1 1 0 0 0-1-1H6.972a2.5 2.5 0 0 1-1.118-.264L4.7 3.158A1.5 1.5 0 0 0 4.028 3H3Zm8 10V7a1 1 0 0 0-1-1H6.606a2.5 2.5 0 0 1-1.387-.42l-.493-.328A1.5 1.5 0 0 0 3.894 5H2v7a1 1 0 0 0 1 1h8Z"></path>
</svg>