<svg xmlns="http://www.w3.org/2000/svg" viewBox="0 0 16 16" fill="currentColor">
<path fill-rule="evenodd" d="M7 2a1 1 0 0 0-1 1h4a1 1 0 0 0-1-1H7Zm0-1a2 2 0 0 0-2 2H3a2 2 0 0 0-2 2v8a2 2 0 0 0 2 2h10a2 2 0 0 0 2-2V5a2 2 0 0 0-2-2h-2a2 2 0 0 0-2-2H7ZM6 4h7a1 1 0 0 1 1 1v1a2 2 0 0 1-2 2H4a2 2 0 0 1-2-2V5a1 1 0 0 1 1-1h3Zm0 5H4c-.768 0-1.47-.289-2-.764V13a1 1 0 0 0 1 1h10a1 1 0 0 0 1-1V8.236A2.989 2.989 0 0 1 12 9h-2a1.5 1.5 0 0 1-1.5 1.5h-1A1.5 1.5 0 0 1 6 9Zm3 0H7a.5.5 0 0 0 .5.5h1A.5.5 0 0 0 9 9Z"></path>
</svg>