<svg xmlns="http://www.w3.org/2000/svg" viewBox="0 0 16 16" fill="currentColor">
<path fill-rule="evenodd" d="M2.147 1.743a.5.5 0 0 1 .707 0l1.257 1.256H13a2 2 0 0 1 2 2v6a2 2 0 0 1-1.103 1.788l.36.36a.5.5 0 0 1-.707.707L2.147 2.45a.5.5 0 0 1 0-.707ZM9.112 8l3.993 3.994a1 1 0 0 0 .896-.995V8h-4.89Zm-2-2h6.89V5a1 1 0 0 0-1-1H5.11l2 2Z" clip-rule="evenodd"></path><path d="M2.452 4.164a1 1 0 0 0-.45.835V6H4.29l2 2H2v3a1 1 0 0 0 1 1h7.287l1 1H3l-.204-.011a2 2 0 0 1-1.785-1.785l-.01-.205L1 6l.001-1c0-.626.287-1.184.737-1.55l.714.714Z"></path>
</svg>