<svg xmlns="http://www.w3.org/2000/svg" viewBox="0 0 16 16" fill="currentColor">
<path fill-rule="evenodd" d="M9.496 4.121a.504.504 0 0 0-.977-.243l-2.015 8a.504.504 0 0 0 .977.243l2.015-8Zm-4.618.18a.498.498 0 0 0-.101-.7.506.506 0 0 0-.705.1L1.14 7.58a.696.696 0 0 0 0 .84l2.93 3.88a.506.506 0 0 0 .706.1.498.498 0 0 0 .1-.7L2.084 8l2.795-3.7Zm7.05-.6a.506.506 0 0 0-.705-.1.498.498 0 0 0-.1.7L13.916 8l-2.795 3.7a.498.498 0 0 0 .101.7.506.506 0 0 0 .705-.1l2.931-3.88a.696.696 0 0 0 0-.84l-2.93-3.88Z"></path>
</svg>