<svg xmlns="http://www.w3.org/2000/svg" viewBox="0 0 16 16" fill="currentColor">
<path fill-rule="evenodd" d="M10.5 1a.5.5 0 0 1 .5.5V6h3V4a1 1 0 0 0-1-1h-1a.5.5 0 0 1 0-1h1a2 2 0 0 1 2 2v9a2 2 0 0 1-2 2H3a2 2 0 0 1-2-2V4a2 2 0 0 1 2-2h1a.5.5 0 0 1 0 1H3a1 1 0 0 0-1 1v2h3V1.5a.5.5 0 0 1 1 0V6h4V1.5a.5.5 0 0 1 .5-.5ZM2 13a1 1 0 0 0 1 1h2v-3H2v2Zm4 1h4v-3H6v3Zm5 0h2a1 1 0 0 0 1-1v-2h-3v3Zm-9-4h3V7H2v3Zm4 0h4V7H6v3Zm5 0h3V7h-3v3Z" clip-rule="evenodd"></path><path d="M9 2a.5.5 0 0 1 0 1H7a.5.5 0 0 1 0-1h2Z"></path>
</svg>