<svg xmlns="http://www.w3.org/2000/svg" viewBox="0 0 16 16" fill="currentColor">
<path fill-rule="evenodd" d="M15 13a2 2 0 0 1-2 2H3a2 2 0 0 1-2-2V7h14v6ZM4.5 11a.5.5 0 0 0 0 1h5a.5.5 0 0 0 0-1h-5Zm0-2a.5.5 0 0 0 0 1h7a.5.5 0 0 0 0-1h-7Z" clip-rule="evenodd"></path><path d="M3.5 3a1 1 0 0 0 2 0V2h5v1a1 1 0 1 0 2 0V2h.5a2 2 0 0 1 2 2v2H1V4a2 2 0 0 1 2-2h.5v1Z"></path><path d="M4.5 1a.5.5 0 0 1 .5.5V3a.5.5 0 0 1-1 0V1.5a.5.5 0 0 1 .5-.5Zm7 0a.5.5 0 0 1 .5.5V3a.5.5 0 0 1-1 0V1.5a.5.5 0 0 1 .5-.5Z"></path>
</svg>