<svg xmlns="http://www.w3.org/2000/svg" viewBox="0 0 16 16" fill="currentColor">
<path d="M8 6.5a.5.5 0 0 0 1 0V3.707l.646.647a.5.5 0 0 0 .708-.708l-1.5-1.5a.5.5 0 0 0-.708 0l-1.5 1.5a.5.5 0 1 0 .708.708L8 3.707V6.5ZM2.5 6a.5.5 0 0 0 0 1h4a.5.5 0 0 0 0-1h-4Zm8 0a.5.5 0 0 0 0 1h4a.5.5 0 0 0 0-1h-4ZM2 10.5a.5.5 0 0 1 .5-.5h4a.5.5 0 0 1 0 1h-4a.5.5 0 0 1-.5-.5Zm8.5-.5a.5.5 0 0 0 0 1h4a.5.5 0 0 0 0-1h-4Zm-2 0a.5.5 0 0 1 .5.5v2.793l.646-.647a.5.5 0 0 1 .708.708l-1.5 1.5a.5.5 0 0 1-.708 0l-1.5-1.5a.5.5 0 0 1 .708-.708l.646.647V10.5a.5.5 0 0 1 .5-.5Z"></path>
</svg>