<svg xmlns="http://www.w3.org/2000/svg" viewBox="0 0 16 16" fill="currentColor">
<path fill-rule="evenodd" d="m10.881 2.294 2.825 2.825a1 1 0 0 1 0 1.414l-1.603 1.602-4.24-4.239 1.604-1.602a1 1 0 0 1 1.414 0Zm-3.724 2.31L3.293 8.466a1 1 0 0 0 0 1.414l2.825 2.825a1 1 0 0 0 1.414 0l3.864-3.863-4.24-4.24Zm5.273 4.619-3.778 3.778H14.5a.5.5 0 1 1 0 1h-13a.5.5 0 0 1 0-1H5l-2.414-2.413a2 2 0 0 1 0-2.828L8.76 1.587a2 2 0 0 1 2.828 0l2.825 2.824a2 2 0 0 1 0 2.829l-1.93 1.93a.484.484 0 0 1-.053.053Z"></path>
</svg>