<svg xmlns="http://www.w3.org/2000/svg" viewBox="0 0 16 16" fill="currentColor">
<path fill-rule="evenodd" d="M3.11 2.5A1.5 1.5 0 0 1 4.61 1h3.536a1.5 1.5 0 0 1 .67.158l1.642.821a.2.2 0 0 0 .09.021H14.5A1.5 1.5 0 0 1 16 3.5v8a1.5 1.5 0 0 1-1.5 1.5H4.61a1.5 1.5 0 0 1-1.5-1.5V4H3a1 1 0 0 0-1 1v8a1 1 0 0 0 1 1h9a1 1 0 0 0 1-1h1a2 2 0 0 1-2 2H3a2 2 0 0 1-2-2V5a2 2 0 0 1 2-2h.11v-.5ZM15 3.5v8a.5.5 0 0 1-.5.5H4.61a.5.5 0 0 1-.5-.5v-9a.5.5 0 0 1 .5-.5h3.536a.5.5 0 0 1 .223.053l1.642.82a1.2 1.2 0 0 0 .536.127H14.5a.5.5 0 0 1 .5.5Z"></path>
</svg>