<svg xmlns="http://www.w3.org/2000/svg" viewBox="0 0 16 16" fill="currentColor">
<path fill-rule="evenodd" d="M2.61 14H2.5A1.5 1.5 0 0 1 1 12.5v-8A1.5 1.5 0 0 1 2.5 3h2.764a1.5 1.5 0 0 1 .67.158L7.619 4H12.5A1.5 1.5 0 0 1 14 5.5V7h.787a.75.75 0 0 1 .67 1.085l-2.68 5.362a1 1 0 0 1-.895.553H2.611ZM2 4.5a.5.5 0 0 1 .5-.5h2.764a.5.5 0 0 1 .224.053l1.746.873A.7.7 0 0 0 7.547 5H12.5a.5.5 0 0 1 .5.5V7H5.427a1.5 1.5 0 0 0-1.342.83L2 12V4.5Zm.618 8.5L4.98 8.276A.5.5 0 0 1 5.427 8h8.955l-2.5 5H2.618Z"></path>
</svg>