<svg xmlns="http://www.w3.org/2000/svg" viewBox="0 0 16 16" fill="currentColor">
<path fill-rule="evenodd" d="M2 2.8a.8.8 0 0 1 .8-.8h.4a.8.8 0 0 1 .8.8v.4a.8.8 0 0 1-.8.8h-.4a.8.8 0 0 1-.8-.8v-.4Zm0 5a.8.8 0 0 1 .8-.8h.4a.8.8 0 0 1 .8.8v.4a.8.8 0 0 1-.8.8h-.4a.8.8 0 0 1-.8-.8v-.4Zm.8 4.2a.8.8 0 0 0-.8.8v.4a.8.8 0 0 0 .8.8h.4a.8.8 0 0 0 .8-.8v-.4a.8.8 0 0 0-.8-.8h-.4ZM7 2.8a.8.8 0 0 1 .8-.8h.4a.8.8 0 0 1 .8.8v.4a.8.8 0 0 1-.8.8h-.4a.8.8 0 0 1-.8-.8v-.4ZM7.8 7a.8.8 0 0 0-.8.8v.4a.8.8 0 0 0 .8.8h.4a.8.8 0 0 0 .8-.8v-.4a.8.8 0 0 0-.8-.8h-.4ZM7 12.8a.8.8 0 0 1 .8-.8h.4a.8.8 0 0 1 .8.8v.4a.8.8 0 0 1-.8.8h-.4a.8.8 0 0 1-.8-.8v-.4ZM12.8 2a.8.8 0 0 0-.8.8v.4a.8.8 0 0 0 .8.8h.4a.8.8 0 0 0 .8-.8v-.4a.8.8 0 0 0-.8-.8h-.4ZM12 7.8a.8.8 0 0 1 .8-.8h.4a.8.8 0 0 1 .8.8v.4a.8.8 0 0 1-.8.8h-.4a.8.8 0 0 1-.8-.8v-.4Zm.8 4.2a.8.8 0 0 0-.8.8v.4a.8.8 0 0 0 .8.8h.4a.8.8 0 0 0 .8-.8v-.4a.8.8 0 0 0-.8-.8h-.4Z"></path>
</svg>