<svg xmlns="http://www.w3.org/2000/svg" viewBox="0 0 16 16" fill="currentColor">
<path d="m9.134 12.437.387-1.032.777.777-.44 1.173a.61.61 0 0 1-1.003.217l-2.816-2.815-3.422 3.422a.61.61 0 1 1-.863-.864l3.422-3.422-2.75-2.75a.61.61 0 0 1 .218-1.002l1.173-.44.776.776-1.032.387 5.573 5.573Z"></path><path fill-rule="evenodd" d="m11.004 10.297.813-2.168a1.22 1.22 0 0 1 1.143-.792h1.134a.61.61 0 0 0 .431-1.042L9.704 1.473a.61.61 0 0 0-1.042.432v1.133c0 .509-.316.964-.793 1.143l-2.168.813-2.847-2.848a.5.5 0 1 0-.708.708l11 11a.5.5 0 0 0 .708-.708l-2.85-2.849ZM6.478 5.771l1.743-.654a2.22 2.22 0 0 0 1.44-2.08v-.192l3.492 3.492h-.193a2.22 2.22 0 0 0-2.079 1.44l-.654 1.743-3.75-3.75Z"></path>
</svg>