<svg xmlns="http://www.w3.org/2000/svg" viewBox="0 0 16 16" fill="currentColor">
<path fill-rule="evenodd" d="m13.49 3.976-1.47-1.464a.037.037 0 0 0-.013-.009.046.046 0 0 0-.017-.003.046.046 0 0 0-.017.003.037.037 0 0 0-.013.009l-8.75 8.713c-.154.153-.258.35-.297.563l-.291 1.578 1.555-.32c.207-.042.397-.144.546-.292l8.767-8.73a.032.032 0 0 0 0-.048Zm-.765-2.173a1.043 1.043 0 0 0-1.47 0l-8.75 8.713a2.067 2.067 0 0 0-.575 1.09l-.421 2.283a.519.519 0 0 0 .616.6l2.253-.463a2.082 2.082 0 0 0 1.05-.564l8.767-8.73a1.032 1.032 0 0 0 0-1.464l-1.47-1.465Z"></path>
</svg>