<svg xmlns="http://www.w3.org/2000/svg" viewBox="0 0 16 16" fill="currentColor">
<path fill-rule="evenodd" d="M14 2H3a1 1 0 0 0-1 1v11a1 1 0 0 0 1 1h11a1 1 0 0 0 1-1V3a1 1 0 0 0-1-1ZM3 1a2 2 0 0 0-2 2v11a2 2 0 0 0 2 2h11a2 2 0 0 0 2-2V3a2 2 0 0 0-2-2H3Z"></path><path fill-rule="evenodd" d="M7 5H5v2h2V5ZM5 4a1 1 0 0 0-1 1v2a1 1 0 0 0 1 1h2a1 1 0 0 0 1-1V5a1 1 0 0 0-1-1H5ZM7 10H5v2h2v-2ZM5 9a1 1 0 0 0-1 1v2a1 1 0 0 0 1 1h2a1 1 0 0 0 1-1v-2a1 1 0 0 0-1-1H5ZM12 5h-2v2h2V5Zm-2-1a1 1 0 0 0-1 1v2a1 1 0 0 0 1 1h2a1 1 0 0 0 1-1V5a1 1 0 0 0-1-1h-2Z"></path>
</svg>