<svg xmlns="http://www.w3.org/2000/svg" viewBox="0 0 16 16" fill="currentColor">
<path fill-rule="evenodd" d="M11.5 15a.5.5 0 0 1-.5-.5V2.707L8.854 4.854a.5.5 0 1 1-.708-.708l3-3a.5.5 0 0 1 .708 0l3 3a.5.5 0 0 1-.708.708L12 2.707V14.5a.5.5 0 0 1-.5.5Zm-7-12h-2a.5.5 0 0 0-.5.5v7a.5.5 0 0 0 .5.5h2a.5.5 0 0 0 .5-.5v-7a.5.5 0 0 0-.5-.5Zm-2-1A1.5 1.5 0 0 0 1 3.5v7A1.5 1.5 0 0 0 2.5 12h2A1.5 1.5 0 0 0 6 10.5v-7A1.5 1.5 0 0 0 4.5 2h-2Z"></path><path d="M1 13.5a.5.5 0 0 1 .5-.5h4a.5.5 0 0 1 0 1h-4a.5.5 0 0 1-.5-.5Z"></path>
</svg>