<svg xmlns="http://www.w3.org/2000/svg" viewBox="0 0 16 16" fill="currentColor">
<path fill-rule="evenodd" d="M7.146 1.278a2.5 2.5 0 0 1 1.708 0l4.817 1.752A.5.5 0 0 1 14 3.5v5.625a4.5 4.5 0 0 1-2.345 3.95L8.239 14.94a.5.5 0 0 1-.478 0l-3.416-1.863A4.5 4.5 0 0 1 2 9.126V3.5a.5.5 0 0 1 .33-.47l4.816-1.752Zm1.367.94a1.5 1.5 0 0 0-1.026 0L3 3.85v5.275a3.5 3.5 0 0 0 1.824 3.073L8 13.93l3.176-1.732A3.5 3.5 0 0 0 13 9.125V3.85L8.513 2.218Z"></path><path d="M8.2 7.5h2.3l-3.5 5 .8-4H5.5l3.5-5-.8 4Z"></path>
</svg>