<svg xmlns="http://www.w3.org/2000/svg" viewBox="0 0 16 16" fill="currentColor">
<path fill-rule="evenodd" d="M3 3h10a1 1 0 0 1 1 1v2a1 1 0 0 1-1 1H3a1 1 0 0 1-1-1V4a1 1 0 0 1 1-1ZM1 4a2 2 0 0 1 2-2h10a2 2 0 0 1 2 2v2a2 2 0 0 1-2 2H3a2 2 0 0 1-2-2V4Zm2 6h10a1 1 0 0 1 1 1v2a1 1 0 0 1-1 1H3a1 1 0 0 1-1-1v-2a1 1 0 0 1 1-1Zm-2 1a2 2 0 0 1 2-2h10a2 2 0 0 1 2 2v2a2 2 0 0 1-2 2H3a2 2 0 0 1-2-2v-2Zm12-5.5a.5.5 0 1 1-1 0 .5.5 0 0 1 1 0Zm-.5 7.5a.5.5 0 1 0 0-1 .5.5 0 0 0 0 1ZM11 5.5a.5.5 0 1 1-1 0 .5.5 0 0 1 1 0Zm-.5 7.5a.5.5 0 1 0 0-1 .5.5 0 0 0 0 1Z"></path>
</svg>