<svg xmlns="http://www.w3.org/2000/svg" viewBox="0 0 16 16" fill="currentColor">
<path fill-rule="evenodd" d="M6.053 1.276A.5.5 0 0 1 6.5 1h3a.5.5 0 0 1 .447.276L10.81 3H14a.5.5 0 0 1 0 1h-1.043l-.878 10.087a1 1 0 0 1-.996.913H4.917a1 1 0 0 1-.996-.913L3.043 4H2a.5.5 0 0 1 0-1h3.191l.862-1.724ZM9.19 2l.5 1H6.309l.5-1h2.382ZM5.646 6.646a.5.5 0 0 1 .708 0L8 8.293l1.646-1.647a.5.5 0 0 1 .708.708L8.707 9l1.647 1.646a.5.5 0 0 1-.708.708L8 9.707l-1.646 1.647a.5.5 0 0 1-.708-.708L7.293 9 5.646 7.354a.5.5 0 0 1 0-.708Z"></path>
</svg>