<svg xmlns="http://www.w3.org/2000/svg" viewBox="0 0 16 16" fill="currentColor">
<path fill-rule="evenodd" d="M10 5a2 2 0 1 1-4 0 2 2 0 0 1 4 0Zm1 0a3 3 0 1 1-6 0 3 3 0 0 1 6 0Zm-7.145 5.98A2.092 2.092 0 0 1 5.641 10h4.718c.74 0 1.416.38 1.786.98l.782 1.272c.182.296-.01.748-.467.748H3.54c-.457 0-.649-.452-.467-.748l.782-1.272Zm-.851-.524A3.092 3.092 0 0 1 5.64 9h4.718c1.08 0 2.082.553 2.637 1.457l.782 1.271c.615 1-.123 2.272-1.318 2.272H3.54c-1.195 0-1.933-1.272-1.319-2.272l.783-1.271Z"></path>
</svg>