<svg xmlns="http://www.w3.org/2000/svg" viewBox="0 0 16 16" fill="currentColor">
<path d="M10.294 4.418 9 3.124V8h4.876l-1.294-1.293a.5.5 0 0 1 .707-.708l2.006 2.006a.7.7 0 0 1 0 .99l-2.006 2.006a.5.5 0 0 1-.707-.707L13.875 9H9v4.876l1.294-1.294a.5.5 0 0 1 .707.707l-2.006 2.006a.7.7 0 0 1-.99 0L5.999 13.29a.5.5 0 1 1 .707-.708L8 13.876V9H3.124l1.294 1.294a.5.5 0 1 1-.707.707L1.705 8.995a.7.7 0 0 1 0-.99L3.711 6a.5.5 0 0 1 .707.708L3.124 8H8V3.124L6.706 4.418A.5.5 0 0 1 6 3.71l2.006-2.006a.7.7 0 0 1 .99 0L11 3.711a.5.5 0 0 1-.707.707Z"></path>
</svg>