<svg xmlns="http://www.w3.org/2000/svg" viewBox="0 0 16 16" fill="currentColor">
<path fill-rule="evenodd" d="M13 4H3a1 1 0 0 0-1 1v6a1 1 0 0 0 1 1h10a1 1 0 0 0 1-1V5a1 1 0 0 0-1-1ZM3 3a2 2 0 0 0-2 2v6a2 2 0 0 0 2 2h10a2 2 0 0 0 2-2V5a2 2 0 0 0-2-2H3Z"></path><path d="M6.5 5.5c.45 0 .87.119 1.235.326A2.795 2.795 0 0 0 6.7 8c0 .877.404 1.66 1.035 2.174A2.5 2.5 0 1 1 6.5 5.5Z"></path><path d="M7 8c0-.818.393-1.544 1-2 .607.456 1 1.182 1 2 0 .818-.393 1.544-1 2a2.496 2.496 0 0 1-1-2Z"></path><path d="M9.3 8c0 .877-.404 1.66-1.035 2.174a2.5 2.5 0 1 0 0-4.348A2.795 2.795 0 0 1 9.3 8Z"></path>
</svg>