<svg xmlns="http://www.w3.org/2000/svg" viewBox="0 0 16 16" fill="currentColor">
<g><path fill-rule="evenodd" d="M2.087 3.369A.8.8 0 0 0 .798 4v6.396a1.6 1.6 0 0 0 1.6 1.6h8.004a1.6 1.6 0 0 0 1.6-1.6V9.6h-.8v.797a.8.8 0 0 1-.8.8h-.654V5.126L11.202 4v1.6h.8V4a.8.8 0 0 0-1.29-.632L6.645 6.514a.4.4 0 0 1-.49 0L2.087 3.37ZM1.598 4l4.068 3.146c.144.111.306.185.475.223l-.414.37a.72.72 0 0 1-.931.024L1.598 5.19V4Z"></path><path d="M12.8 5.2a.4.4 0 0 1 .8 0v2h2a.4.4 0 0 1 0 .8h-2v2a.4.4 0 1 1-.8 0V8h-2a.4.4 0 0 1 0-.8h2v-2Z"></path></g>
</svg>