<svg xmlns="http://www.w3.org/2000/svg" viewBox="0 0 16 16" fill="currentColor">
<path fill-rule="evenodd" d="M12.653 1.008A1.5 1.5 0 0 1 14 2.5V5H1v3.5a.5.5 0 0 0 .5.5H2V7.5A1.5 1.5 0 0 1 3.5 6h11A1.5 1.5 0 0 1 16 7.5v6a1.5 1.5 0 0 1-1.5 1.5h-11A1.5 1.5 0 0 1 2 13.5V10h-.5A1.5 1.5 0 0 1 .008 8.653L0 8.5v-6A1.5 1.5 0 0 1 1.5 1h11l.153.008ZM11.5 8a.5.5 0 0 0-.5.5v1a.5.5 0 0 0 .5.5h2a.5.5 0 0 0 .5-.5v-1a.5.5 0 0 0-.5-.5h-2Zm-10-6a.5.5 0 0 0-.5.5V3h12v-.5a.5.5 0 0 0-.5-.5h-11Z" clip-rule="evenodd"></path>
</svg>