<svg xmlns="http://www.w3.org/2000/svg" viewBox="0 0 16 16" fill="currentColor">
<path fill-rule="evenodd" d="M13 4H3a1 1 0 0 0-1 1v7a1 1 0 0 0 1 1h10a1 1 0 0 0 1-1V5a1 1 0 0 0-1-1ZM3 3a2 2 0 0 0-2 2v7a2 2 0 0 0 2 2h10a2 2 0 0 0 2-2V5a2 2 0 0 0-2-2H3Zm2.5 4.5a.5.5 0 1 0 0-1 .5.5 0 0 0 0 1Zm0 1a1.5 1.5 0 1 0 0-3 1.5 1.5 0 0 0 0 3Zm-1.5 2a.5.5 0 0 1 .5-.5h2a.5.5 0 0 1 .5.5v.5a.5.5 0 0 0 1 0v-.5A1.5 1.5 0 0 0 6.5 9h-2A1.5 1.5 0 0 0 3 10.5v.5a.5.5 0 0 0 1 0v-.5Zm5-3a.5.5 0 0 1 .5-.5H12a.5.5 0 0 1 0 1H9.5a.5.5 0 0 1-.5-.5ZM9.5 9a.5.5 0 0 0 0 1H12a.5.5 0 0 0 0-1H9.5Z"></path>
</svg>