<svg xmlns="http://www.w3.org/2000/svg" viewBox="0 0 16 16" fill="currentColor">
<path d="M9.08 8.229a.501.501 0 0 1 .84.54l-2.25 3.5a.5.5 0 0 1-.804.05l-1.25-1.5a.5.5 0 0 1 .768-.64l.813.975L9.08 8.23Z"></path><path fill-rule="evenodd" d="M13 2a2 2 0 0 1 2 2v9a2 2 0 0 1-2 2H3a2 2 0 0 1-2-2V4a2 2 0 0 1 2-2 .5.5 0 0 1 0 1 1 1 0 0 0-1 1v2h12V4a1 1 0 0 0-1-1 .5.5 0 0 1 0-1ZM2 13a1 1 0 0 0 1 1h10a1 1 0 0 0 1-1V7H2v6Z" clip-rule="evenodd"></path><path d="M4.5 1a.5.5 0 0 1 .5.5V3a.5.5 0 0 1-1 0V1.5a.5.5 0 0 1 .5-.5Zm7 0a.5.5 0 0 1 .5.5V3a.5.5 0 0 1-1 0V1.5a.5.5 0 0 1 .5-.5ZM10 2a.5.5 0 0 1 0 1H6a.5.5 0 0 1 0-1h4Z"></path>
</svg>