<svg xmlns="http://www.w3.org/2000/svg" viewBox="0 0 16 16" fill="currentColor">
<path d="M9 3.5a.5.5 0 0 0-1 0v2.293l-.646-.647a.5.5 0 1 0-.708.708l1.5 1.5a.5.5 0 0 0 .708 0l1.5-1.5a.5.5 0 0 0-.708-.708L9 5.793V3.5ZM2.5 7a.5.5 0 0 0 0 1h4a.5.5 0 0 0 0-1h-4Zm8 0a.5.5 0 0 0 0 1h4a.5.5 0 0 0 0-1h-4ZM2 9.5a.5.5 0 0 1 .5-.5h4a.5.5 0 0 1 0 1h-4a.5.5 0 0 1-.5-.5Zm8.5-.5a.5.5 0 0 0 0 1h4a.5.5 0 0 0 0-1h-4Zm-2 5a.5.5 0 0 1-.5-.5v-2.293l-.646.647a.5.5 0 0 1-.708-.708l1.5-1.5a.5.5 0 0 1 .708 0l1.5 1.5a.5.5 0 0 1-.708.708L9 11.207V13.5a.5.5 0 0 1-.5.5Z"></path>
</svg>