<svg xmlns="http://www.w3.org/2000/svg" viewBox="0 0 16 16" fill="currentColor">
<path fill-rule="evenodd" d="M14 12v-2a1 1 0 0 0-1-1H3a1 1 0 0 0-1 1v2a1 1 0 0 0 1 1h10a1 1 0 0 0 1-1Zm1 0V9.41a2 2 0 0 0-.162-.787l-2.318-5.41A2 2 0 0 0 10.68 2H5.32A2 2 0 0 0 3.48 3.212l-2.32 5.41A2 2 0 0 0 1 9.412V12a2 2 0 0 0 2 2h10a2 2 0 0 0 2-2Zm-3.4-8.394 1.912 4.46A2.004 2.004 0 0 0 13 8H3c-.177 0-.348.023-.512.066L4.4 3.606A1 1 0 0 1 5.319 3h5.362a1 1 0 0 1 .92.606Zm.9 7.894a.5.5 0 1 0 0-1 .5.5 0 0 0 0 1Z"></path>
</svg>