<svg xmlns="http://www.w3.org/2000/svg" viewBox="0 0 16 16" fill="currentColor">
<path fill-rule="evenodd" d="M7.793 9H1V8h6.793L6.646 6.854a.5.5 0 1 1 .708-.708l1.858 1.859a.7.7 0 0 1 0 .99l-1.858 1.859a.5.5 0 0 1-.708-.708L7.793 9Z"></path><path d="M3 2a2 2 0 0 0-2 2v3h1V4a1 1 0 0 1 1-1h2.528a1.5 1.5 0 0 1 .67.158l1.156.578A2.5 2.5 0 0 0 8.472 4H13a1 1 0 0 1 1 1v7a1 1 0 0 1-1 1H3a1 1 0 0 1-1-1v-2H1v2a2 2 0 0 0 2 2h10a2 2 0 0 0 2-2V5a2 2 0 0 0-2-2H8.472a1.5 1.5 0 0 1-.67-.158l-1.156-.578A2.5 2.5 0 0 0 5.528 2H3Z"></path>
</svg>