<svg xmlns="http://www.w3.org/2000/svg" viewBox="0 0 16 16" fill="currentColor">
<path fill-rule="evenodd" d="M1.026 3.5a.5.5 0 0 1 .5-.5h.998a.5.5 0 0 1 .5.5V6h.498a.5.5 0 0 1 0 1H1.526a.5.5 0 0 1 0-1h.498V4h-.498a.5.5 0 0 1-.5-.5Zm4.49 1a.5.5 0 0 1 .5-.5h7.485a.5.5 0 0 1 0 1H6.017a.5.5 0 0 1-.5-.5ZM13.502 9H6.017a.5.5 0 1 1 0-1H13.5a.5.5 0 0 1 0 1Zm-7.484 3a.5.5 0 0 0 0 1H13.5a.5.5 0 0 0 0-1H6.017ZM2.04 9.863a.342.342 0 0 1 .567-.134.345.345 0 0 1 .025.459l-.005.006-.004.006-1.497 1.995a.5.5 0 0 0 .4.8h1.996a.5.5 0 0 0 0-1h-.996l.893-1.19c.421-.534.377-1.3-.104-1.783a1.342 1.342 0 0 0-2.223.526l-.068.204a.5.5 0 0 0 .949.316l.067-.205Z"></path>
</svg>