<svg xmlns="http://www.w3.org/2000/svg" viewBox="0 0 16 16" fill="currentColor">
<path fill-rule="evenodd" d="M13 1a2 2 0 0 1 2 2v10a2 2 0 0 1-2 2H2a2 2 0 0 0 2-2V3a2 2 0 0 1 2-2h7ZM6.5 8a.5.5 0 0 0-.5.5v2a.5.5 0 0 0 .5.5h2a.5.5 0 0 0 .5-.5v-2a.5.5 0 0 0-.5-.5h-2Zm4 2a.5.5 0 0 0 0 1h2a.5.5 0 0 0 0-1h-2Zm0-2a.5.5 0 0 0 0 1h2a.5.5 0 0 0 0-1h-2Zm-4-2a.5.5 0 0 0 0 1h6a.5.5 0 0 0 0-1h-6Zm0-2a.5.5 0 0 0 0 1h6a.5.5 0 0 0 0-1h-6Z" clip-rule="evenodd"></path><path d="M3 13a1 1 0 1 1-2 0V8a1 1 0 0 1 1-1h1v6Z"></path>
</svg>