<svg xmlns="http://www.w3.org/2000/svg" viewBox="0 0 16 16" fill="currentColor">
<path fill-rule="evenodd" d="M11.5 1a.5.5 0 0 1 .5.5v11.793l2.146-2.147a.5.5 0 0 1 .708.708l-3 3a.5.5 0 0 1-.708 0l-3-3a.5.5 0 0 1 .708-.708L11 13.293V1.5a.5.5 0 0 1 .5-.5ZM4 2a1 1 0 0 0-1 1v1h2V3a1 1 0 0 0-1-1Zm1 3v1.5a.5.5 0 0 0 1 0V3a2 2 0 1 0-4 0v3.5a.5.5 0 0 0 1 0V5h2ZM2 8.5a.5.5 0 0 1 .5-.5h2.625a.875.875 0 0 1 .7 1.4l-2.7 3.6H5.5a.5.5 0 0 1 0 1H2.875a.875.875 0 0 1-.7-1.4l2.7-3.6H2.5a.5.5 0 0 1-.5-.5Z"></path>
</svg>