<svg xmlns="http://www.w3.org/2000/svg" viewBox="0 0 16 16" fill="currentColor">
<path fill-rule="evenodd" d="M3.5 2a1.5 1.5 0 1 0 0 3 1.5 1.5 0 0 0 0-3ZM3 3.5a.5.5 0 1 1 1 0 .5.5 0 0 1-1 0Z"></path><path fill-rule="evenodd" d="M3.5 12a1.5 1.5 0 1 0 0 3 1.5 1.5 0 0 0 0-3ZM3 13.5a.5.5 0 1 1 1 0 .5.5 0 0 1-1 0Z"></path><path fill-rule="evenodd" d="M11.085 8a1.5 1.5 0 1 1 0 1H9v3.5A1.5 1.5 0 0 1 7.5 14H6v-1h1.5a.5.5 0 0 0 .5-.5v-8a.5.5 0 0 0-.5-.5H6V3h1.5A1.5 1.5 0 0 1 9 4.5V8h2.085ZM12.5 8a.5.5 0 1 0 0 1 .5.5 0 0 0 0-1Z"></path>
</svg>