<svg width="20" height="18" viewBox="0 0 20 18" fill="none" xmlns="http://www.w3.org/2000/svg">
<path d="M6 6H16V13.5C16 14.8807 14.8807 16 13.5 16H6V6Z" fill="white"/>
<path fill-rule="evenodd" clip-rule="evenodd" d="M0 2C0 0.89543 0.89543 0 2 0H18C19.1046 0 20 0.89543 20 2V16C20 17.1046 19.1046 18 18 18H2C0.89543 18 0 17.1046 0 16V2Z" fill="url(#paint0_linear_117_309)"/>
<path fill-rule="evenodd" clip-rule="evenodd" d="M0 2C0 0.89543 0.89543 0 2 0H18C19.1046 0 20 0.89543 20 2V16C20 17.1046 19.1046 18 18 18H2C0.89543 18 0 17.1046 0 16V2Z" fill="url(#paint1_radial_117_309)"/>
<path fill-rule="evenodd" clip-rule="evenodd" d="M2 0C0.89543 0 0 0.89543 0 2V3H14.5C15.3284 3 16 3.67157 16 4.5V18H18C19.1046 18 20 17.1046 20 16V2C20 0.89543 19.1046 0 18 0H2Z" fill="url(#paint2_linear_117_309)"/>
<path d="M3.40128 14V13.3608L5.80185 10.733C6.08357 10.4252 6.31558 10.1577 6.49787 9.9304C6.68016 9.70076 6.8151 9.48532 6.9027 9.28409C6.99266 9.08049 7.03764 8.86742 7.03764 8.64489C7.03764 8.3892 6.97609 8.16785 6.85298 7.98082C6.73224 7.7938 6.56652 7.64938 6.35582 7.54759C6.14512 7.44579 5.90838 7.39489 5.6456 7.39489C5.36624 7.39489 5.1224 7.45289 4.91406 7.56889C4.7081 7.68253 4.5483 7.84233 4.43466 8.0483C4.32339 8.25426 4.26776 8.49574 4.26776 8.77273H3.42969C3.42969 8.34659 3.52794 7.97254 3.72443 7.65057C3.92093 7.3286 4.18845 7.07765 4.52699 6.89773C4.8679 6.7178 5.25024 6.62784 5.67401 6.62784C6.10014 6.62784 6.47775 6.7178 6.80682 6.89773C7.13589 7.07765 7.39394 7.32031 7.58097 7.62571C7.76799 7.93111 7.86151 8.27083 7.86151 8.64489C7.86151 8.91241 7.81297 9.17401 7.71591 9.42969C7.62121 9.683 7.45549 9.96591 7.21875 10.2784C6.98438 10.5885 6.65885 10.9673 6.24219 11.4148L4.60866 13.1619V13.2188H7.98935V14H3.40128ZM12.0128 6.72727V14H11.1321V7.65057H11.0895L9.31392 8.82955V7.93466L11.1321 6.72727H12.0128Z" fill="white"/>
<defs>
<linearGradient id="paint0_linear_117_309" x1="10" y1="-7.19145" x2="11.6098" y2="13.8353" gradientUnits="userSpaceOnUse">
<stop offset="0.988738" stop-color="#6D4AFF"/>
</linearGradient>
<radialGradient id="paint1_radial_117_309" cx="0" cy="0" r="1" gradientUnits="userSpaceOnUse" gradientTransform="translate(13.6207 -9.1875) rotate(108.899) scale(30.7846 38.4447)">
<stop offset="0.556057" stop-color="#54B7FF" stop-opacity="0"/>
<stop offset="0.994421" stop-color="#54B7FF"/>
</radialGradient>
<linearGradient id="paint2_linear_117_309" x1="23.75" y1="29.25" x2="-1.68527" y2="-13.9794" gradientUnits="userSpaceOnUse">
<stop stop-color="#C8E8FF"/>
<stop offset="0.410661" stop-color="#BDAEFF"/>
<stop offset="0.774813" stop-color="#6D4AFF"/>
</linearGradient>
</defs>
</svg>
